<?xml version="1.0" encoding="UTF-8"?>
<svg version="1.1" xmlns="http://www.w3.org/2000/svg" width="5693" height="3201">
<path d="M0 0 C1878.69 0 3757.38 0 5693 0 C5693 1056.33 5693 2112.66 5693 3201 C3814.31 3201 1935.62 3201 0 3201 C0 2144.67 0 1088.34 0 0 Z " fill="#111111" transform="translate(0,0)"/>
<path d="M0 0 C3.43356779 0.60109966 3.90143952 0.87697171 6.234375 3.7890625 C7.08377827 5.0605189 7.92138767 6.33989732 8.75 7.625 C9.72927519 9.09584744 10.70981971 10.5658503 11.69140625 12.03515625 C12.48635498 13.23422607 12.48635498 13.23422607 13.29736328 14.45751953 C16.36379316 19.03649871 19.5318125 23.54479955 22.6875 28.0625 C24.06013586 30.03368705 25.43252841 32.00504354 26.8046875 33.9765625 C28.20307029 35.9844131 29.60150804 37.99222543 31 40 C46.582782 62.37175066 46.582782 62.37175066 53.78955078 72.88037109 C60.47668887 82.62124469 67.24692077 92.30479893 74 102 C89.582782 124.37175066 89.582782 124.37175066 96.78955078 134.88037109 C103.47668887 144.62124469 110.24692077 154.30479893 117 164 C132.582782 186.37175066 132.582782 186.37175066 139.78955078 196.88037109 C146.47668887 206.62124469 153.24692077 216.30479893 160 226 C175.582782 248.37175066 175.582782 248.37175066 182.78955078 258.88037109 C189.47668887 268.62124469 196.24692077 278.30479893 203 288 C205.77137813 291.97878764 208.54232599 295.9578739 211.3125 299.9375 C211.9820874 300.89938232 212.6516748 301.86126465 213.34155273 302.85229492 C217.16352814 308.34688659 220.96673495 313.85370244 224.75 319.375 C232.94205035 331.31128845 241.15186914 343.17920852 250.234375 354.4609375 C252 357 252 357 252 360 C243.36007191 360.44290924 234.7241147 360.77905471 226.07526112 360.98443127 C222.05721111 361.08308946 218.04698743 361.21640427 214.03344727 361.43334961 C188.22149085 362.79216299 188.22149085 362.79216299 181.3359375 358.23794556 C177.0438783 353.88306361 174.42360304 348.86081852 172.02218628 343.28500366 C170.71033814 340.35248748 168.98301744 337.89266643 167.0546875 335.33203125 C166.52182129 334.57365967 165.98895508 333.81528809 165.43994141 333.03393555 C164.92351074 332.30086182 164.40708008 331.56778809 163.875 330.8125 C159.76322893 324.95666883 155.66967802 319.08988593 151.625 313.1875 C144.47286154 302.75269632 137.23047971 292.38059116 130 282 C114.417218 259.62824934 114.417218 259.62824934 107.21044922 249.11962891 C100.52331113 239.37875531 93.75307923 229.69520107 87 220 C71.417218 197.62824934 71.417218 197.62824934 64.21044922 187.11962891 C57.52331113 177.37875531 50.75307923 167.69520107 44 158 C29.8887523 137.74088869 15.89697352 117.40668275 2 97 C-6.65086019 101.06094946 -11.79640496 111.46284713 -17.15649414 119.12744141 C-21.00540173 124.6234928 -24.94486692 130.04509674 -28.9375 135.4375 C-35.15250165 143.8351358 -41.28757372 152.28722235 -47.39111328 160.76611328 C-50.63146195 165.26523169 -53.88027702 169.75824119 -57.12744141 174.25244141 C-59.82598022 177.987945 -62.52257953 181.7248148 -65.21484375 185.46484375 C-71.34756679 193.97920681 -77.53232789 202.45216202 -83.76708984 210.89208984 C-89.36432174 218.4766884 -94.88408627 226.1158833 -100.39111328 233.76611328 C-103.63146195 238.26523169 -106.88027702 242.75824119 -110.12744141 247.25244141 C-112.82598022 250.987945 -115.52257953 254.7248148 -118.21484375 258.46484375 C-123.82903178 266.25915847 -129.47885383 274.024536 -135.1875 281.75 C-140.00394216 288.26868079 -144.76022935 294.8244828 -149.45703125 301.4296875 C-157.37333446 312.55953954 -165.4050311 323.60599232 -173.54003906 334.5769043 C-174.06307617 335.28371338 -174.58611328 335.99052246 -175.125 336.71875 C-175.72997314 337.48074707 -176.33494629 338.24274414 -176.95825195 339.02783203 C-178.69007736 341.54884632 -179.8624314 343.80450362 -181.12573242 346.56201172 C-183.90084262 352.0316972 -186.72514996 356.66555557 -192 360 C-202.28713014 362.82062629 -213.40717837 361.78427129 -223.95129395 361.23596191 C-227.90524261 361.05015106 -231.8612829 360.96927642 -235.81835938 360.87890625 C-243.55126983 360.68714732 -251.27385186 360.38102026 -259 360 C-257.76513497 356.84050524 -256.52182362 354.03042361 -254.63671875 351.20703125 C-254.1689502 350.50392822 -253.70118164 349.8008252 -253.21923828 349.07641602 C-252.71376465 348.32932373 -252.20829102 347.58223145 -251.6875 346.8125 C-250.89061768 345.62708618 -250.89061768 345.62708618 -250.07763672 344.41772461 C-241.48951505 331.72415386 -232.33692744 319.43328935 -223.2331543 307.10791016 C-217.63539171 299.52364438 -212.11593979 291.88415291 -206.60888672 284.23388672 C-203.36853805 279.73476831 -200.11972298 275.24175881 -196.87255859 270.74755859 C-194.17401978 267.012055 -191.47742047 263.2751852 -188.78515625 259.53515625 C-182.65243321 251.02079319 -176.46767211 242.54783798 -170.23291016 234.10791016 C-164.63567826 226.5233116 -159.11591373 218.8841167 -153.60888672 211.23388672 C-150.36853805 206.73476831 -147.11972298 202.24175881 -143.87255859 197.74755859 C-141.17401978 194.012055 -138.47742047 190.2751852 -135.78515625 186.53515625 C-130.17096822 178.74084153 -124.52114617 170.975464 -118.8125 163.25 C-113.99605784 156.73131921 -109.23977065 150.1755172 -104.54296875 143.5703125 C-96.55154225 132.33484157 -88.42577605 121.19855572 -80.23364258 110.10888672 C-74.63614485 102.52397852 -69.11615144 94.88444692 -63.60888672 87.23388672 C-60.36853805 82.73476831 -57.11972298 78.24175881 -53.87255859 73.74755859 C-51.17401978 70.012055 -48.47742047 66.2751852 -45.78515625 62.53515625 C-39.58478668 53.92703134 -33.33083687 45.36162891 -27.02416992 36.83105469 C-23.59691221 32.18856946 -20.21105978 27.5208734 -16.875 22.8125 C-11.40512231 15.09260982 -5.70456379 7.54727511 0 0 Z " fill="#1E1E1E" transform="translate(2814,1244)"/>
<path d="M0 0 C9.51972125 -0.04545689 19.03936864 -0.08203347 28.55917454 -0.10362434 C32.9811416 -0.11399471 37.40302959 -0.12802819 41.82495117 -0.15087891 C46.10437213 -0.17285103 50.38371776 -0.18461912 54.66319084 -0.18975449 C56.28359091 -0.19340706 57.90398757 -0.20053729 59.52435493 -0.21146011 C82.79220053 -0.36185346 103.04012592 3.18525108 120.8046875 19.64453125 C132.64503955 32.34868122 139.95848244 48.64137394 141 66 C141.07927734 66.97066406 141.07927734 66.97066406 141.16015625 67.9609375 C142.01500231 87.36222644 134.45401495 105.02784685 121.875 119.43359375 C110.39296124 131.59225265 94.40279249 139.67939841 77.57202148 140.31884766 C75.58854617 140.35972375 73.60485972 140.39130789 71.62109375 140.4140625 C70.68656372 140.43170654 69.75203369 140.44935059 68.78918457 140.4675293 C65.33878961 140.53001665 61.88812134 140.57660162 58.4375 140.625 C50.703125 140.74875 42.96875 140.8725 35 141 C34.67 156.51 34.34 172.02 34 188 C22.78 188 11.56 188 0 188 C0 162.59 0 137.18 0 111 C5.63578125 110.99742188 11.2715625 110.99484375 17.078125 110.9921875 C20.66935156 110.97722278 24.26040026 110.96049817 27.8515625 110.9375 C33.53950357 110.90123938 39.22696587 110.87115425 44.91503906 110.87988281 C49.50605153 110.88651752 54.09609961 110.86375792 58.68691254 110.82144547 C60.42976189 110.81038743 62.17270992 110.80954745 63.91556549 110.81957626 C75.6477097 110.87837881 85.15882787 109.98837557 94.42095947 101.88082886 C102.78455631 93.56165864 106.2059757 82.39678853 106.25 70.875 C106.24442335 60.3373649 103.93054499 51.84157469 98 43 C97.4534375 42.46246094 96.906875 41.92492188 96.34375 41.37109375 C95 40 95 40 95 38 C94.443125 37.72285156 93.88625 37.44570312 93.3125 37.16015625 C91.72499827 36.36372379 90.1418596 35.55855278 88.5625 34.74609375 C87.716875 34.31425781 86.87125 33.88242188 86 33.4375 C85.154375 33.00308594 84.30875 32.56867188 83.4375 32.12109375 C78.80665683 29.99120274 74.52391566 29.83583869 69.47753906 29.79467773 C68.72593002 29.78477814 67.97432098 29.77487854 67.19993591 29.76467896 C64.72186404 29.73315534 62.24377302 29.70834277 59.765625 29.68359375 C58.04497791 29.66301633 56.3243358 29.64201964 54.60369873 29.62062073 C50.07952908 29.56548149 45.55531443 29.51603633 41.03106689 29.46777344 C36.4125977 29.41749887 31.7941937 29.36184391 27.17578125 29.30664062 C18.11724117 29.1991587 9.05864558 29.098189 0 29 C0 19.43 0 9.86 0 0 Z " fill="#212121" transform="translate(2589,1745)"/>
<path d="M0 0 C0.66 0 1.32 0 2 0 C10.49512662 18.18599181 18.97075144 36.38082245 27.41748047 54.58935547 C28.95591584 57.90498985 30.4953266 61.22016919 32.03515625 64.53515625 C36.87856198 74.9625968 41.71906447 85.39135699 46.55078125 95.82421875 C57.01299314 118.41850995 57.01299314 118.41850995 67.52389526 140.99017334 C68.3640314 142.7890148 69.20362574 144.58810927 70.04321289 146.38720703 C72.62531317 151.91945751 75.21043521 157.45024984 77.80355835 162.9773407 C79.03514615 165.60430838 80.26364922 168.23271109 81.49151611 170.86141968 C82.07536706 172.10948931 82.66058881 173.35691869 83.24725342 174.60366821 C84.05111627 176.31227641 84.84991163 178.02326603 85.6484375 179.734375 C86.10395996 180.70600586 86.55948242 181.67763672 87.02880859 182.67871094 C88 185 88 185 88 187 C76.45 187 64.9 187 53 187 C36.72745782 152.62303665 36.72745782 152.62303665 29.5 137 C24.76881851 126.7788341 19.99506982 116.57842168 15.19042969 106.39160156 C14.45086318 104.82346445 13.711752 103.2551125 12.97314453 101.68652344 C8.75661551 92.73438878 4.47919984 83.8245019 0 75 C-4.94496696 84.73075599 -9.68904666 94.51925378 -14.1555481 104.47857666 C-15.7622833 108.05968392 -17.38066927 111.63551159 -19 115.2109375 C-19.33141495 115.94279266 -19.6628299 116.67464783 -20.00428772 117.42868042 C-23.45321612 125.02736711 -27.00308959 132.57760425 -30.5625 140.125 C-37.89080818 155.67004261 -44.95940044 171.32196387 -52 187 C-63.55 187 -75.1 187 -87 187 C-85.45602321 182.36806964 -83.74496174 178.11008743 -81.6484375 173.734375 C-81.31763687 173.03667999 -80.98683624 172.33898499 -80.64601135 171.62014771 C-79.55875788 169.32861958 -78.46682555 167.03935273 -77.375 164.75 C-76.60710969 163.13316212 -75.83961919 161.5161343 -75.07250977 159.89892578 C-73.49073577 156.56455533 -71.9076258 153.23082417 -70.32373047 149.89746094 C-67.17206474 143.26012631 -64.04409165 136.61168761 -60.91851807 129.96203613 C-59.59909847 127.15507828 -58.27877052 124.34854804 -56.95849609 121.54199219 C-55.9668571 119.43396748 -54.97535988 117.32587614 -53.98388672 115.21777344 C-50.99062375 108.85370223 -47.9957466 102.49039063 -45.00100708 96.12701416 C-43.33394012 92.58470651 -41.66697517 89.04235085 -40 85.5 C-39.33333382 84.0833331 -38.66666716 82.66666644 -38 81.25 C-37.67 80.54875 -37.34 79.8475 -37 79.125 C-36 77 -35 74.875 -34 72.75 C-33.67006042 72.04887589 -33.34012085 71.34775177 -33.00018311 70.62538147 C-32.33291392 69.20743955 -31.66563689 67.78950132 -30.99835205 66.37156677 C-29.34083977 62.84944159 -27.68345997 59.32725421 -26.02636719 55.80493164 C-22.91745762 49.19698707 -19.80720589 42.58968367 -16.69250488 35.98446655 C-15.2297271 32.88221276 -13.76766889 29.77962008 -12.30566406 26.67700195 C-11.61201238 25.20547863 -10.91801255 23.73411936 -10.22363281 22.26293945 C-6.7370761 14.87577608 -3.27489045 7.48428246 0 0 Z " fill="#222222" transform="translate(2296,1746)"/>
<path d="M0 0 C2.80474388 3.40339542 4.63288082 7.1353581 6.484375 11.10546875 C6.81640427 11.8085466 7.14843353 12.51162445 7.49052429 13.23600769 C8.58181556 15.5509479 9.66608769 17.86909666 10.75 20.1875 C11.5168504 21.81924747 12.28386116 23.45091958 13.05102539 25.08251953 C18.2416259 36.14332826 23.32093883 47.25235209 28.34631348 58.38900757 C33.80189546 70.47257298 39.45398647 82.4565293 45.15548706 94.42572021 C50.69314903 106.05690657 56.10494626 117.73621908 61.39263916 129.48303223 C65.14155527 137.80695326 68.96868856 146.08783381 72.8984375 154.328125 C73.52005768 155.63257568 73.52005768 155.63257568 74.15423584 156.96337891 C76.18595894 161.22264667 78.22553373 165.47794656 80.27539062 169.72851562 C81.01445156 171.27207383 81.75339005 172.81569067 82.4921875 174.359375 C82.83309418 175.05992004 83.17400085 175.76046509 83.52523804 176.48223877 C85.24742035 180.09333244 86.20293533 183.01467664 87 187 C75.78 187 64.56 187 53 187 C42.99548825 167.1871434 33.41074182 147.17477948 24.11132812 127.02172852 C21.009001 120.30391793 17.87197835 113.6047903 14.6953125 106.921875 C13.95999225 105.37184992 13.22472189 103.82180118 12.48950195 102.27172852 C11.41113182 99.99854341 10.33105156 97.72626572 9.2449646 95.45675659 C8.23797508 93.35230641 7.23758573 91.24482662 6.23828125 89.13671875 C5.93991364 88.51806946 5.64154602 87.89942017 5.33413696 87.26202393 C3.43146364 83.22844173 2.12238823 79.29750671 1 75 C-3.02252525 78.43900733 -4.7928914 82.26405592 -6.9140625 86.98828125 C-7.28118347 87.78661377 -7.64830444 88.58494629 -8.02655029 89.4074707 C-9.23431412 92.03877657 -10.42956477 94.67557321 -11.625 97.3125 C-12.46997461 99.15885541 -13.31585374 101.00479712 -14.16259766 102.8503418 C-15.91403376 106.67045829 -17.66092538 110.49260284 -19.40429688 114.31640625 C-22.99202614 122.18039863 -26.61998958 130.02574595 -30.24707031 137.87164307 C-31.73626453 141.09428192 -33.22300987 144.31804797 -34.70983887 147.54177856 C-40.78197672 160.70597569 -46.88882778 173.85387371 -53 187 C-64.55 187 -76.1 187 -88 187 C-79.9650765 168.63446057 -79.9650765 168.63446057 -76.94140625 162.3203125 C-76.59534836 161.59210297 -76.24929047 160.86389343 -75.89274597 160.11361694 C-75.1610435 158.57450774 -74.42827537 157.03590472 -73.69445801 155.49780273 C-72.12026054 152.19798063 -70.55180551 148.89543857 -68.98294067 145.59307861 C-68.17401918 143.89043934 -67.36483541 142.18792465 -66.5553894 140.48553467 C-62.60046593 132.16632636 -58.67071392 123.83537605 -54.75 115.5 C-54.42080566 114.80036133 -54.09161133 114.10072266 -53.75244141 113.37988281 C-48.88302553 103.02908715 -44.04092714 92.66573897 -39.21078491 82.29656982 C-33.65747463 70.37766633 -28.04553231 58.4867938 -22.42211914 46.60083008 C-18.80523487 38.95379039 -15.20020837 31.3015192 -11.62109375 23.63671875 C-11.09594933 22.51281738 -11.09594933 22.51281738 -10.56019592 21.36621094 C-8.88966573 17.79050201 -7.22141789 14.21375844 -5.55688477 10.63525391 C-4.96509251 9.36747287 -4.37321904 8.09972975 -3.78125 6.83203125 C-3.26626953 5.72577393 -2.75128906 4.6195166 -2.22070312 3.47973633 C-1 1 -1 1 0 0 Z " fill="#212121" transform="translate(3043,1746)"/>
<path d="M0 0 C11.22 0 22.44 0 34 0 C34 52.47 34 104.94 34 159 C64.03 159 94.06 159 125 159 C125 168.57 125 178.14 125 188 C83.75 188 42.5 188 0 188 C0 125.96 0 63.92 0 0 Z " fill="#242424" transform="translate(2423,1745)"/>
<path d="M0 0 C0.99 0 1.98 0 3 0 C4.52552942 1.94647426 5.82041306 3.84667254 7.125 5.9375 C8.00470165 7.30194912 8.88636839 8.66513241 9.76953125 10.02734375 C10.2692041 10.80190918 10.76887695 11.57647461 11.28369141 12.37451172 C14.35248444 17.06893566 17.51777308 21.69836479 20.67645264 26.33255005 C21.79328256 27.97179332 22.90764961 29.61271369 24.02197266 31.25366211 C24.72241699 32.28370361 25.42286133 33.31374512 26.14453125 34.375 C26.80533691 35.35339844 27.46614258 36.33179688 28.14697266 37.33984375 C29.73432655 39.61860633 31.40557364 41.76903146 33.13671875 43.9375 C35 47 35 47 34.6015625 49.5390625 C32.62847209 52.57088436 30.56790437 55.50050119 28.375 58.375 C23.46002241 64.94441722 18.73285677 71.62973069 14.0625 78.375 C9.35827396 85.16380275 4.64710043 91.94619189 -0.125 98.6875 C-4.39185354 104.71745645 -8.64025817 110.75994346 -12.875 116.8125 C-13.7400415 118.04818726 -13.7400415 118.04818726 -14.62255859 119.30883789 C-17.73057809 123.75015896 -20.83302801 128.19528147 -23.9296875 132.64453125 C-24.56922363 133.56194092 -25.20875977 134.47935059 -25.86767578 135.42456055 C-27.09950422 137.19177901 -28.32971291 138.96012787 -29.55810547 140.72973633 C-30.11127441 141.52275146 -30.66444336 142.3157666 -31.234375 143.1328125 C-31.72131836 143.83293457 -32.20826172 144.53305664 -32.70996094 145.25439453 C-34 147 -34 147 -36 149 C-38.78408813 149.24050903 -38.78408813 149.24050903 -42.37744141 149.22705078 C-43.03122269 149.22734283 -43.68500397 149.22763489 -44.3585968 149.22793579 C-46.52305296 149.22654065 -48.68716636 149.2109712 -50.8515625 149.1953125 C-52.35085868 149.19158302 -53.8501573 149.18873574 -55.34945679 149.18673706 C-59.29836743 149.17909548 -63.24713129 149.1594426 -67.19598389 149.1373291 C-71.22438572 149.1168819 -75.25281124 149.10773776 -79.28125 149.09765625 C-87.18756741 149.07619711 -95.09376545 149.04205495 -103 149 C-101.7901108 145.89767068 -100.62254324 143.19950786 -98.671875 140.49609375 C-98.20910156 139.84833984 -97.74632813 139.20058594 -97.26953125 138.53320312 C-96.51736328 137.49583008 -96.51736328 137.49583008 -95.75 136.4375 C-94.66093545 134.91573865 -93.57241618 133.39358696 -92.484375 131.87109375 C-91.91396484 131.07558105 -91.34355469 130.28006836 -90.75585938 129.46044922 C-87.8069316 125.32817807 -84.90540029 121.16293158 -82 117 C-77.19818038 110.13135015 -72.37713155 103.27674489 -67.5390625 96.43359375 C-63.6766353 90.96693091 -59.83564745 85.48547834 -56 80 C-51.197513 73.13181445 -46.377134 66.27674835 -41.5390625 59.43359375 C-37.07822981 53.11998134 -32.64668559 46.78605456 -28.2175293 40.45019531 C-23.94952228 34.34782327 -19.66251829 28.25921893 -15.34790039 22.18969727 C-12.81870578 18.62104925 -10.33758512 15.02811882 -7.9140625 11.38671875 C-7.41414795 10.64067383 -6.9142334 9.89462891 -6.39916992 9.12597656 C-5.44516879 7.69760406 -4.49959317 6.26355773 -3.5637207 4.82324219 C-2.45142225 3.16228865 -1.23399266 1.57265273 0 0 Z " fill="#202020" transform="translate(2844,1455)"/>
<path d="M0 0 C10.89 0 21.78 0 33 0 C33 26.4 33 52.8 33 80 C54.45 80 75.9 80 98 80 C98 89.57 98 99.14 98 109 C76.88 109.33 55.76 109.66 34 110 C33.67 135.74 33.34 161.48 33 188 C22.11 188 11.22 188 0 188 C0 125.96 0 63.92 0 0 Z " fill="#1F1F1F" transform="translate(2771,1745)"/>
<path d="M0 0 C1.51596285 0.01680144 3.03197482 0.02960538 4.54800415 0.03858948 C8.52448171 0.07283703 12.49796609 0.16112821 16.4732666 0.26092529 C20.53515121 0.3532547 24.59752314 0.39415232 28.66015625 0.43945312 C36.6211603 0.53576858 44.57973837 0.68921646 52.5390625 0.87890625 C51.2789156 4.12445608 50.03714543 6.83972067 47.95703125 9.63671875 C47.18746094 10.68375977 47.18746094 10.68375977 46.40234375 11.75195312 C45.84933594 12.49509766 45.29632812 13.23824219 44.7265625 14.00390625 C40.04370999 20.38533808 35.47750965 26.82513999 31.0390625 33.37890625 C26.28701071 40.38290854 21.39776981 47.26875751 16.4140625 54.109375 C12.52382616 59.4678015 8.75724774 64.89994579 5.0390625 70.37890625 C0.28627007 77.38242009 -4.6022125 84.26873324 -9.5859375 91.109375 C-14.0357032 97.23849938 -18.31313076 103.4745406 -22.56396484 109.74267578 C-26.99639213 116.25604221 -31.57933048 122.65139987 -36.23632812 129.00585938 C-38.36519887 131.92060907 -40.39182374 134.75958428 -42.203125 137.88671875 C-42.61820313 138.54414062 -43.03328125 139.2015625 -43.4609375 139.87890625 C-44.1209375 139.87890625 -44.7809375 139.87890625 -45.4609375 139.87890625 C-47.13233561 137.66275617 -48.68123835 135.44098307 -50.2109375 133.12890625 C-51.20076864 131.65944554 -52.19170744 130.1907305 -53.18359375 128.72265625 C-53.71227051 127.93761719 -54.24094727 127.15257812 -54.78564453 126.34375 C-57.69001589 122.07057407 -60.67386456 117.85336031 -63.6484375 113.62890625 C-68.69269137 106.44669954 -73.65436189 99.22311494 -78.4609375 91.87890625 C-73.84206233 84.25356324 -68.7513552 77.0509919 -63.50537109 69.8503418 C-59.89553466 64.88746003 -56.35804906 59.88508082 -52.8984375 54.81640625 C-49.19248131 49.38855834 -45.44584596 43.99322171 -41.6484375 38.62890625 C-37.11435472 32.22148227 -32.5920055 25.80607339 -28.0859375 19.37890625 C-27.51512451 18.56647461 -26.94431152 17.75404297 -26.35620117 16.91699219 C-25.80552979 16.13098633 -25.2548584 15.34498047 -24.6875 14.53515625 C-24.20877441 13.85259766 -23.73004883 13.17003906 -23.23681641 12.46679688 C-21.43808586 10.01823743 -21.43808586 10.01823743 -20.46755981 7.61561584 C-15.98861536 -1.30204764 -8.85089883 -0.28798769 0 0 Z " fill="#1F1F1F" transform="translate(3007.4609375,1243.12109375)"/>
<path d="M0 0 C32.37396784 -2.98862687 32.37396784 -2.98862687 40.96435547 1.57470703 C45.49681674 5.70627734 48.1071083 10.86853528 50.68408203 16.36621094 C52.80154673 20.60428315 55.64721953 24.23572241 58.5 28 C59.57650951 29.48698889 60.64941819 30.97659111 61.71875 32.46875 C65.11379761 37.16958515 68.55387822 41.83653702 72 46.5 C79.29103812 56.36944088 86.47664226 66.31310744 93.63671875 76.27783203 C99.81724168 84.8788151 106.04019739 93.43932736 112.41479492 101.89770508 C118.07599395 109.41300456 123.64454059 116.99602859 129.21777344 124.57666016 C132.14230746 128.55322518 135.07135433 132.52646271 138 136.5 C139.16668888 138.08331696 140.33335553 139.66665031 141.5 141.25 C142.0775 142.03375 142.655 142.8175 143.25 143.625 C145 146 146.75 148.375 148.5 150.75 C149.0784668 151.53487793 149.65693359 152.31975586 150.25292969 153.12841797 C151.41054264 154.69983388 152.56745271 156.27176784 153.72363281 157.84423828 C156.77303287 161.98959719 159.83685838 166.12324873 162.921875 170.2421875 C163.56253906 171.10134766 164.20320313 171.96050781 164.86328125 172.84570312 C166.09057077 174.49098255 167.32212292 176.13309376 168.55859375 177.77148438 C169.11160156 178.51462891 169.66460938 179.25777344 170.234375 180.0234375 C170.72131836 180.67231934 171.20826172 181.32120117 171.70996094 181.98974609 C173.15202378 184.23689702 174.08102274 186.49858078 175 189 C143.32841793 191.83582697 143.32841793 191.83582697 135.16503906 187.49121094 C130.91404516 183.56127112 128.54047424 178.66965521 126.19091797 173.4453125 C124.30164925 169.56607603 121.67846093 166.35967814 119 163 C118.00314305 161.68712618 117.0109701 160.37068307 116.0234375 159.05078125 C115.52811523 158.39029785 115.03279297 157.72981445 114.52246094 157.04931641 C111.29744626 152.70826874 108.15147735 148.30985416 104.99389648 143.91967773 C99.31443685 136.03008877 93.54325703 128.20931251 87.76611328 120.39111328 C84.84043897 116.43008838 81.92049694 112.46484283 79 108.5 C77.8333611 106.91664621 76.66669442 105.33331288 75.5 103.75 C68.5 94.25 61.5 84.75 54.5 75.25 C53.92241943 74.46616943 53.34483887 73.68233887 52.74975586 72.87475586 C51.58379194 71.29231815 50.41793896 69.70979869 49.25219727 68.12719727 C46.32568557 64.15448113 43.39722466 60.18323006 40.46484375 56.21484375 C34.18132292 47.70681409 27.94270735 39.17001992 21.77124023 30.58032227 C17.61597317 24.81241129 13.36881065 19.11811943 9.04443359 13.47583008 C5.75192911 9.14160636 2.81376563 4.65858268 0 0 Z " fill="#232323" transform="translate(3237,1745)"/>
<path d="M0 0 C10.89 0 21.78 0 33 0 C33 62.04 33 124.08 33 188 C22.11 188 11.22 188 0 188 C0 125.96 0 63.92 0 0 Z " fill="#1E1E1E" transform="translate(2883,1745)"/>
<path d="M0 0 C4.42534424 4.10632682 7.76523578 8.66715864 11.1875 13.625 C11.72052734 14.388125 12.25355469 15.15125 12.80273438 15.9375 C19.01713962 24.84872261 19.01713962 24.84872261 18.77807617 26.95874023 C17.94069137 29.15559442 16.94300634 30.7672383 15.55078125 32.66015625 C15.0395874 33.36156738 14.52839355 34.06297852 14.00170898 34.78564453 C13.44427002 35.53700684 12.88683105 36.28836914 12.3125 37.0625 C11.44443726 38.24755127 11.44443726 38.24755127 10.55883789 39.45654297 C8.71161005 41.9752869 6.85583644 44.48759479 5 47 C3.81450163 48.61544342 2.62959624 50.23132218 1.4453125 51.84765625 C-4.26828565 59.63582524 -10.02285294 67.39320624 -15.8125 75.125 C-16.32240479 75.80643066 -16.83230957 76.48786133 -17.35766602 77.18994141 C-20.87666102 81.87666102 -20.87666102 81.87666102 -22 83 C-24.73894085 83.08858646 -27.4525327 83.11523479 -30.19140625 83.09765625 C-31.01124496 83.0962413 -31.83108368 83.09482635 -32.67576599 83.09336853 C-35.30471382 83.08775289 -37.93357773 83.07519779 -40.5625 83.0625 C-42.34049357 83.05748701 -44.11848846 83.05292376 -45.89648438 83.04882812 C-50.26435545 83.03777839 -54.63216348 83.02050331 -59 83 C-57.72757348 80.33851091 -56.34399338 77.92766173 -54.63671875 75.5234375 C-54.16862793 74.86190674 -53.70053711 74.20037598 -53.21826172 73.51879883 C-52.71311035 72.81134521 -52.20795898 72.1038916 -51.6875 71.375 C-51.15914551 70.63080811 -50.63079102 69.88661621 -50.08642578 69.11987305 C-45.12373538 62.14277685 -40.10722302 55.20451035 -35.0859375 48.26953125 C-32.37529903 44.52384591 -29.6828434 40.76562497 -27 37 C-21.03974342 28.63799529 -15.02074947 20.31850435 -9 12 C-8.5575293 11.38801758 -8.11505859 10.77603516 -7.65917969 10.14550781 C-6.52379197 8.57544425 -5.38696098 7.00642466 -4.25 5.4375 C-3.63640625 4.59058594 -3.0228125 3.74367188 -2.390625 2.87109375 C-1 1 -1 1 0 0 Z " fill="#252525" transform="translate(3296,1851)"/>
<path d="M0 0 C1.55521173 0.00031721 3.11044535 0.0116478 4.66552734 0.03173828 C5.89316299 0.03598312 5.89316299 0.03598312 7.14559937 0.04031372 C9.76436877 0.05152546 12.38279848 0.07663149 15.00146484 0.10205078 C16.77489741 0.11207931 18.54833533 0.12120538 20.32177734 0.12939453 C24.6734711 0.151468 29.02491034 0.18600434 33.37646484 0.22705078 C32.10403833 2.88853987 30.72045822 5.29938905 29.01318359 7.70361328 C28.31128906 8.69554687 28.31128906 8.69554687 27.59521484 9.70751953 C26.83724609 10.7690625 26.83724609 10.7690625 26.06396484 11.85205078 C25.53416016 12.59841797 25.00435547 13.34478516 24.45849609 14.11376953 C20.08417693 20.26451408 15.66287032 26.38118972 11.23461914 32.49316406 C7.57803251 37.54540691 3.96384913 42.62548003 0.37646484 47.72705078 C-3.87817829 53.7748738 -8.17058277 59.79394702 -12.49853516 65.78955078 C-13.02189453 66.51529297 -13.54525391 67.24103516 -14.08447266 67.98876953 C-17.54566139 72.77439274 -21.06508837 77.51333611 -24.62353516 82.22705078 C-28.00172474 81.10098759 -28.42228465 80.48487055 -30.36572266 77.65673828 C-30.87490234 76.92455078 -31.38408203 76.19236328 -31.90869141 75.43798828 C-32.69566406 74.28169922 -32.69566406 74.28169922 -33.49853516 73.10205078 C-34.53746703 71.5993563 -35.57652819 70.09675118 -36.61572266 68.59423828 C-37.36354004 67.48967285 -37.36354004 67.48967285 -38.12646484 66.36279297 C-39.10217364 64.97083267 -40.12277952 63.60898314 -41.19091797 62.28662109 C-42.63134766 60.48486328 -42.63134766 60.48486328 -44.62353516 57.22705078 C-43.92786408 52.92949396 -40.98609513 49.88884846 -38.31103516 46.53955078 C-34.19945002 41.31750436 -30.24679263 36.00311272 -26.37353516 30.60205078 C-21.59537183 23.95151916 -16.78676212 17.32489355 -11.93603516 10.72705078 C-11.03546387 9.49801025 -11.03546387 9.49801025 -10.11669922 8.24414062 C-9.27896973 7.1064624 -9.27896973 7.1064624 -8.42431641 5.94580078 C-7.9310083 5.27484375 -7.4377002 4.60388672 -6.92944336 3.91259766 C-4.09698313 0.25671704 -4.09698313 0.25671704 0 0 Z " fill="#232323" transform="translate(3378.62353515625,1744.77294921875)"/>
</svg>
